<?xml version="1.0" encoding="UTF-8"?>
<svg id="Layer_2" data-name="Layer 2" xmlns="http://www.w3.org/2000/svg" viewBox="0 0 492.37 479.69">
  <defs>
    <style>
      .cls-1 {
        fill: none;
      }

      .cls-1, .cls-2, .cls-3, .cls-4, .cls-5, .cls-6, .cls-7 {
        stroke-width: 0px;
      }

      .cls-3 {
        fill: #fac026;
      }

      .cls-4 {
        fill: #de41b0;
      }

      .cls-5 {
        fill: #fff;
      }

      .cls-6 {
        fill: #e90000;
      }

      .cls-7 {
        fill: #009796;
      }
    </style>
  </defs>
  <g id="Layer_1-2" data-name="Layer 1">
    <rect class="cls-7" x="0" y="0" width="492.37" height="479.69"/>
    <path class="cls-3" d="M211.12,242.39v184.64h-58.51v-49.4h-45.27v49.4h-58.51v-104.26c.6-3.34,2.66-12.21,10.36-20.06,8.12-8.27,17.54-10.35,20.83-10.92h-31.19v-19.49c.63-3.24,2.79-12.07,10.63-19.75,7.74-7.58,16.47-9.58,19.73-10.17h131.93ZM152.61,291.52h-45.27v36.71h45.27v-36.71Z"/>
    <g>
      <rect class="cls-1" x="107.93" y="98.67" width="45.27" height="36.71"/>
      <path class="cls-5" d="M367.86,291.71h13.53v135.24h58.51v-184.64l-42.15.05c-.47,32.1-27.68,48.1-29.89,49.35Z"/>
      <path class="cls-5" d="M338.67,242.43l-118.19.15v49.13h31.46c-2.66.11-12.53.83-21,8.67-9.67,8.95-10.37,20.57-10.46,22.85v103.71h58.51v-135.24h22.08v135.24h58.51v-135.24h7.94c-2.32-1.22-27.88-16.53-28.86-49.27Z"/>
      <path class="cls-5" d="M49.42,79.46v19.49h31.19c-3.29.57-12.71,2.64-20.83,10.92-7.7,7.85-9.75,16.72-10.36,20.06v104.26h58.51v-49.4h45.27v49.4h58.51V49.55H79.78c-1.94-.01-13.23.11-22,9.26-8.02,8.36-8.34,18.44-8.36,20.65ZM107.93,98.67h45.27v36.71h-45.27v-36.71Z"/>
      <path class="cls-3" d="M280.59,109.97c-7.39,7.86-9.18,16.66-9.69,19.96,0,32.72.13,58.18.13,90.91,0,6.22-15.52,12.75-18.51,13.5-.01,0-.02.02,0,.02.64,0,30.01,0,30.43,0,19.05,0,48.24-3.96,62.89-25.89.04-.06.08-.12.11-.18-6.48,6.98-15.13,12.74-26.16,12.97-24.49.52-48.11-38.22-48.11-38.22,0,0,22.76-36.65,48.11-36.65,15.81,0,26.93,11.75,33.61,21.94v-10.74c-7.98-10.95-16.54-26.53-16.54-43.01,0-34.03,29.7-50.26,29.7-50.26,0,0,21.6,10.71,29.16,34.35h44.12v-49.4h-219.16v49.4h81.4c-3.15.49-13.19,2.46-21.5,11.29Z"/>
      <path class="cls-6" d="M416.33,144.73c-28.56.61-41.24,38.22-41.24,38.22,0,0,13.32,36.65,41.24,36.65,25.35,0,48.11-36.65,48.11-36.65,0,0-23.63-38.74-48.11-38.22Z"/>
      <path class="cls-5" d="M400.12,249.34c0-30.89-30.07-58.64-30.07-58.64,0,0-31.79,28.8-31.36,58.64,0,.31.03.6.04.9l61.37-.08c0-.28.02-.54.02-.82Z"/>
      <path class="cls-2" d="M367.7,303.73s.07-.04.16-.09h-.33c.1.05.17.09.17.09Z"/>
      <path class="cls-5" d="M400.09,249.9l-61.37.08c.98,32.74,28.83,48.06,31.15,49.27h.33c2.22-1.25,29.43-17.25,29.89-49.35Z"/>
    </g>
    <g>
      <path class="cls-4" d="M399.56,242.37c-3.91-27.97-29.56-51.65-29.56-51.65,0,0-26.93,24.49-30.81,51.69h60.37s0-.03,0-.04Z"/>
      <path class="cls-3" d="M399.56,242.42h-60.37c-.12.85-.29,1.7-.37,2.56-.13,1.46-.2,2.92-.18,4.39,0,.31.03.6.04.9h.02c.7,20.2,11.61,33.7,20.36,41.35.16.14.32.29.48.43,5.14,4.41,9.43,6.78,10.29,7.22h.33c.82-.46,5.07-2.96,10.12-7.54.04-.04.08-.08.12-.11,8.52-7.77,19.25-21.46,19.63-41.43h.02c0-.28.02-.54.02-.82,0-2.34-.19-4.65-.51-6.94Z"/>
    </g>
  </g>
</svg>